<mxfile host="app.diagrams.net" agent="Mozilla/5.0 (Macintosh; Intel Mac OS X 10_15_7) AppleWebKit/537.36 (KHTML, like Gecko) Chrome/133.0.0.0 Safari/537.36" version="26.0.16">
  <diagram name="PÃ¡gina-1" id="ANysjI1-xsiNAWrDBUQb">
    <mxGraphModel dx="1207" dy="744" grid="1" gridSize="10" guides="1" tooltips="1" connect="1" arrows="1" fold="1" page="1" pageScale="1" pageWidth="827" pageHeight="1169" math="0" shadow="0">
      <root>
        <mxCell id="0" />
        <mxCell id="1" parent="0" />
        <mxCell id="hGeA3eWEh_TLiIPCYBsT-1" value="Modelos" style="rounded=1;whiteSpace=wrap;html=1;fontStyle=1;verticalAlign=top;fontSize=20;" parent="1" vertex="1">
          <mxGeometry x="60" y="80" width="590" height="580" as="geometry" />
        </mxCell>
        <mxCell id="hGeA3eWEh_TLiIPCYBsT-35" value="InversionVirtual" style="swimlane;fontStyle=1;align=center;verticalAlign=top;childLayout=stackLayout;horizontal=1;startSize=26;horizontalStack=0;resizeParent=1;resizeParentMax=0;resizeLast=0;collapsible=1;marginBottom=0;whiteSpace=wrap;html=1;" parent="1" vertex="1">
          <mxGeometry x="355" y="412" width="230" height="200" as="geometry" />
        </mxCell>
        <mxCell id="hGeA3eWEh_TLiIPCYBsT-36" value="- inversionId: Long&lt;div&gt;&lt;span style=&quot;background-color: initial;&quot;&gt;- cuentaOrigen: CuentaBancaria&lt;/span&gt;&lt;/div&gt;&lt;div&gt;- cuentaDestino: CuentaBancaria&lt;/div&gt;&lt;div&gt;- cliente: Cliente&lt;/div&gt;&lt;div&gt;&lt;div&gt;- valor: Double&lt;/div&gt;&lt;/div&gt;&lt;div&gt;- fechaCreacion: DateTime&lt;/div&gt;&lt;div&gt;- tiempoDuracion: DateTime&lt;/div&gt;" style="text;strokeColor=none;fillColor=none;align=left;verticalAlign=top;spacingLeft=4;spacingRight=4;overflow=hidden;rotatable=0;points=[[0,0.5],[1,0.5]];portConstraint=eastwest;whiteSpace=wrap;html=1;" parent="hGeA3eWEh_TLiIPCYBsT-35" vertex="1">
          <mxGeometry y="26" width="230" height="104" as="geometry" />
        </mxCell>
        <mxCell id="hGeA3eWEh_TLiIPCYBsT-37" value="" style="line;strokeWidth=1;fillColor=none;align=left;verticalAlign=middle;spacingTop=-1;spacingLeft=3;spacingRight=3;rotatable=0;labelPosition=right;points=[];portConstraint=eastwest;strokeColor=inherit;" parent="hGeA3eWEh_TLiIPCYBsT-35" vertex="1">
          <mxGeometry y="130" width="230" height="8" as="geometry" />
        </mxCell>
        <mxCell id="hGeA3eWEh_TLiIPCYBsT-38" value="+ getters/setters&lt;div&gt;+ getFechaRetiro(): Date&lt;/div&gt;&lt;div&gt;+ validarInversion(): Boolean&lt;/div&gt;" style="text;strokeColor=none;fillColor=none;align=left;verticalAlign=top;spacingLeft=4;spacingRight=4;overflow=hidden;rotatable=0;points=[[0,0.5],[1,0.5]];portConstraint=eastwest;whiteSpace=wrap;html=1;" parent="hGeA3eWEh_TLiIPCYBsT-35" vertex="1">
          <mxGeometry y="138" width="230" height="62" as="geometry" />
        </mxCell>
        <mxCell id="jH00mEY5BMXt8HZJ1XQQ-2" value="ext" style="rounded=1;whiteSpace=wrap;html=1;fontStyle=1;fontSize=16;verticalAlign=top;" vertex="1" parent="1">
          <mxGeometry x="85" y="130" width="505" height="250" as="geometry" />
        </mxCell>
        <mxCell id="hGeA3eWEh_TLiIPCYBsT-23" value="Cliente" style="swimlane;fontStyle=1;align=center;verticalAlign=top;childLayout=stackLayout;horizontal=1;startSize=26;horizontalStack=0;resizeParent=1;resizeParentMax=0;resizeLast=0;collapsible=1;marginBottom=0;whiteSpace=wrap;html=1;" parent="1" vertex="1">
          <mxGeometry x="110" y="175" width="210" height="180" as="geometry" />
        </mxCell>
        <mxCell id="hGeA3eWEh_TLiIPCYBsT-24" value="- clienteId: Long&lt;div&gt;- nombre: String&lt;/div&gt;&lt;div&gt;- documentos: List&amp;lt;Documento&amp;gt;&lt;/div&gt;&lt;div&gt;- cuentas: List&amp;lt;CuentaBancaria&amp;gt;&lt;/div&gt;&lt;div&gt;- inversiones: List&amp;lt;InversionVirtual&amp;gt;&lt;/div&gt;&lt;div&gt;- fechaVinculacion: Date&lt;/div&gt;" style="text;strokeColor=none;fillColor=none;align=left;verticalAlign=top;spacingLeft=4;spacingRight=4;overflow=hidden;rotatable=0;points=[[0,0.5],[1,0.5]];portConstraint=eastwest;whiteSpace=wrap;html=1;" parent="hGeA3eWEh_TLiIPCYBsT-23" vertex="1">
          <mxGeometry y="26" width="210" height="104" as="geometry" />
        </mxCell>
        <mxCell id="hGeA3eWEh_TLiIPCYBsT-25" value="" style="line;strokeWidth=1;fillColor=none;align=left;verticalAlign=middle;spacingTop=-1;spacingLeft=3;spacingRight=3;rotatable=0;labelPosition=right;points=[];portConstraint=eastwest;strokeColor=inherit;" parent="hGeA3eWEh_TLiIPCYBsT-23" vertex="1">
          <mxGeometry y="130" width="210" height="8" as="geometry" />
        </mxCell>
        <mxCell id="hGeA3eWEh_TLiIPCYBsT-26" value="+ getters/setters&lt;div&gt;+ getTotalSaldo(): Double&lt;/div&gt;" style="text;strokeColor=none;fillColor=none;align=left;verticalAlign=top;spacingLeft=4;spacingRight=4;overflow=hidden;rotatable=0;points=[[0,0.5],[1,0.5]];portConstraint=eastwest;whiteSpace=wrap;html=1;" parent="hGeA3eWEh_TLiIPCYBsT-23" vertex="1">
          <mxGeometry y="138" width="210" height="42" as="geometry" />
        </mxCell>
        <mxCell id="hGeA3eWEh_TLiIPCYBsT-31" value="CuentaBancaria" style="swimlane;fontStyle=1;align=center;verticalAlign=top;childLayout=stackLayout;horizontal=1;startSize=26;horizontalStack=0;resizeParent=1;resizeParentMax=0;resizeLast=0;collapsible=1;marginBottom=0;whiteSpace=wrap;html=1;" parent="1" vertex="1">
          <mxGeometry x="390" y="181" width="160" height="144" as="geometry" />
        </mxCell>
        <mxCell id="hGeA3eWEh_TLiIPCYBsT-32" value="- cuentaId: Long&lt;div&gt;- documento: Documento&lt;/div&gt;&lt;div&gt;- numeroCuenta: Long&lt;/div&gt;&lt;div&gt;- saldo: Double&lt;/div&gt;&lt;div&gt;- fechaCreacion: Date&lt;/div&gt;" style="text;strokeColor=none;fillColor=none;align=left;verticalAlign=top;spacingLeft=4;spacingRight=4;overflow=hidden;rotatable=0;points=[[0,0.5],[1,0.5]];portConstraint=eastwest;whiteSpace=wrap;html=1;" parent="hGeA3eWEh_TLiIPCYBsT-31" vertex="1">
          <mxGeometry y="26" width="160" height="84" as="geometry" />
        </mxCell>
        <mxCell id="hGeA3eWEh_TLiIPCYBsT-33" value="" style="line;strokeWidth=1;fillColor=none;align=left;verticalAlign=middle;spacingTop=-1;spacingLeft=3;spacingRight=3;rotatable=0;labelPosition=right;points=[];portConstraint=eastwest;strokeColor=inherit;" parent="hGeA3eWEh_TLiIPCYBsT-31" vertex="1">
          <mxGeometry y="110" width="160" height="8" as="geometry" />
        </mxCell>
        <mxCell id="hGeA3eWEh_TLiIPCYBsT-34" value="+ getters/setters" style="text;strokeColor=none;fillColor=none;align=left;verticalAlign=top;spacingLeft=4;spacingRight=4;overflow=hidden;rotatable=0;points=[[0,0.5],[1,0.5]];portConstraint=eastwest;whiteSpace=wrap;html=1;" parent="hGeA3eWEh_TLiIPCYBsT-31" vertex="1">
          <mxGeometry y="118" width="160" height="26" as="geometry" />
        </mxCell>
        <mxCell id="jH00mEY5BMXt8HZJ1XQQ-4" value="" style="endArrow=diamondThin;endFill=1;endSize=24;html=1;rounded=0;entryX=1;entryY=0.5;entryDx=0;entryDy=0;exitX=0;exitY=0.5;exitDx=0;exitDy=0;" edge="1" parent="1" source="hGeA3eWEh_TLiIPCYBsT-31" target="hGeA3eWEh_TLiIPCYBsT-24">
          <mxGeometry width="160" relative="1" as="geometry">
            <mxPoint x="320" y="340" as="sourcePoint" />
            <mxPoint x="480" y="340" as="targetPoint" />
          </mxGeometry>
        </mxCell>
        <mxCell id="jH00mEY5BMXt8HZJ1XQQ-5" value="" style="endArrow=block;startArrow=block;endFill=1;startFill=1;html=1;rounded=0;entryX=0.495;entryY=1.07;entryDx=0;entryDy=0;entryPerimeter=0;exitX=0.5;exitY=0;exitDx=0;exitDy=0;" edge="1" parent="1" source="hGeA3eWEh_TLiIPCYBsT-35" target="hGeA3eWEh_TLiIPCYBsT-34">
          <mxGeometry width="160" relative="1" as="geometry">
            <mxPoint x="320" y="340" as="sourcePoint" />
            <mxPoint x="480" y="340" as="targetPoint" />
          </mxGeometry>
        </mxCell>
        <mxCell id="jH00mEY5BMXt8HZJ1XQQ-6" value="" style="endArrow=diamondThin;endFill=1;endSize=24;html=1;rounded=0;entryX=0.447;entryY=0.978;entryDx=0;entryDy=0;entryPerimeter=0;exitX=0;exitY=0.5;exitDx=0;exitDy=0;" edge="1" parent="1" source="hGeA3eWEh_TLiIPCYBsT-36" target="hGeA3eWEh_TLiIPCYBsT-26">
          <mxGeometry width="160" relative="1" as="geometry">
            <mxPoint x="320" y="340" as="sourcePoint" />
            <mxPoint x="480" y="340" as="targetPoint" />
            <Array as="points">
              <mxPoint x="204" y="490" />
            </Array>
          </mxGeometry>
        </mxCell>
        <mxCell id="jH00mEY5BMXt8HZJ1XQQ-9" value="" style="group" vertex="1" connectable="0" parent="1">
          <mxGeometry x="710" y="450" width="430" height="240" as="geometry" />
        </mxCell>
        <mxCell id="jH00mEY5BMXt8HZJ1XQQ-10" value="Controladores" style="rounded=1;whiteSpace=wrap;html=1;verticalAlign=top;fontStyle=1;fontSize=20;" vertex="1" parent="jH00mEY5BMXt8HZJ1XQQ-9">
          <mxGeometry width="430" height="240" as="geometry" />
        </mxCell>
        <mxCell id="jH00mEY5BMXt8HZJ1XQQ-12" value="InversionControlador" style="swimlane;fontStyle=1;align=center;verticalAlign=top;childLayout=stackLayout;horizontal=1;startSize=26;horizontalStack=0;resizeParent=1;resizeParentMax=0;resizeLast=0;collapsible=1;marginBottom=0;whiteSpace=wrap;html=1;" vertex="1" parent="jH00mEY5BMXt8HZJ1XQQ-9">
          <mxGeometry x="88.5" y="66" width="253" height="86" as="geometry" />
        </mxCell>
        <mxCell id="jH00mEY5BMXt8HZJ1XQQ-13" value="-" style="text;strokeColor=none;fillColor=none;align=left;verticalAlign=top;spacingLeft=4;spacingRight=4;overflow=hidden;rotatable=0;points=[[0,0.5],[1,0.5]];portConstraint=eastwest;whiteSpace=wrap;html=1;" vertex="1" parent="jH00mEY5BMXt8HZJ1XQQ-12">
          <mxGeometry y="26" width="253" height="26" as="geometry" />
        </mxCell>
        <mxCell id="jH00mEY5BMXt8HZJ1XQQ-14" value="" style="line;strokeWidth=1;fillColor=none;align=left;verticalAlign=middle;spacingTop=-1;spacingLeft=3;spacingRight=3;rotatable=0;labelPosition=right;points=[];portConstraint=eastwest;strokeColor=inherit;" vertex="1" parent="jH00mEY5BMXt8HZJ1XQQ-12">
          <mxGeometry y="52" width="253" height="8" as="geometry" />
        </mxCell>
        <mxCell id="jH00mEY5BMXt8HZJ1XQQ-15" value="+ method(type): type" style="text;strokeColor=none;fillColor=none;align=left;verticalAlign=top;spacingLeft=4;spacingRight=4;overflow=hidden;rotatable=0;points=[[0,0.5],[1,0.5]];portConstraint=eastwest;whiteSpace=wrap;html=1;" vertex="1" parent="jH00mEY5BMXt8HZJ1XQQ-12">
          <mxGeometry y="60" width="253" height="26" as="geometry" />
        </mxCell>
        <mxCell id="hGeA3eWEh_TLiIPCYBsT-48" value="Servicios" style="rounded=1;whiteSpace=wrap;html=1;verticalAlign=top;fontStyle=1;fontSize=20;" parent="1" vertex="1">
          <mxGeometry x="710" y="115" width="830" height="275" as="geometry" />
        </mxCell>
        <mxCell id="hGeA3eWEh_TLiIPCYBsT-56" value="&lt;p style=&quot;margin:0px;margin-top:4px;text-align:center;&quot;&gt;&lt;i&gt;&amp;lt;&amp;lt;Interface&amp;gt;&amp;gt;&lt;/i&gt;&lt;br&gt;&lt;b&gt;InversionVirtualOperaciones&lt;/b&gt;&lt;/p&gt;&lt;hr size=&quot;1&quot; style=&quot;border-style:solid;&quot;&gt;&lt;p style=&quot;margin:0px;margin-left:4px;&quot;&gt;&lt;span style=&quot;background-color: transparent; color: light-dark(rgb(0, 0, 0), rgb(255, 255, 255));&quot;&gt;- operacionesCuenta: CuentaBancariaOperaciones&lt;/span&gt;&lt;/p&gt;&lt;hr size=&quot;1&quot; style=&quot;border-style:solid;&quot;&gt;&lt;p style=&quot;margin:0px;margin-left:4px;&quot;&gt;+ nuevaInversion (inversion: InversionVirtual): InversionVirtual&lt;/p&gt;&lt;p style=&quot;margin:0px;margin-left:4px;&quot;&gt;+ reclamarInversion (inversionId: Long): Boolean&lt;/p&gt;&lt;p style=&quot;margin:0px;margin-left:4px;&quot;&gt;+ obtenerInversion(inversionId: Long): InversionVirtual&lt;/p&gt;&lt;p style=&quot;margin:0px;margin-left:4px;&quot;&gt;+ obtenerInversiones(clienteId: Long): List&amp;lt;InversionVirtual&amp;gt;&lt;/p&gt;" style="verticalAlign=top;align=left;overflow=fill;html=1;whiteSpace=wrap;" parent="1" vertex="1">
          <mxGeometry x="1090" y="175" width="360" height="147" as="geometry" />
        </mxCell>
        <mxCell id="jH00mEY5BMXt8HZJ1XQQ-16" value="ext" style="rounded=1;whiteSpace=wrap;html=1;fontStyle=1;verticalAlign=top;fontSize=16;" vertex="1" parent="1">
          <mxGeometry x="730" y="168" width="330" height="202" as="geometry" />
        </mxCell>
        <mxCell id="jH00mEY5BMXt8HZJ1XQQ-17" value="MicroservicioCuentas" style="swimlane;fontStyle=1;align=center;verticalAlign=top;childLayout=stackLayout;horizontal=1;startSize=26;horizontalStack=0;resizeParent=1;resizeParentMax=0;resizeLast=0;collapsible=1;marginBottom=0;whiteSpace=wrap;html=1;" vertex="1" parent="1">
          <mxGeometry x="755" y="212" width="280" height="110" as="geometry" />
        </mxCell>
        <mxCell id="jH00mEY5BMXt8HZJ1XQQ-18" value="+ field: type" style="text;strokeColor=none;fillColor=none;align=left;verticalAlign=top;spacingLeft=4;spacingRight=4;overflow=hidden;rotatable=0;points=[[0,0.5],[1,0.5]];portConstraint=eastwest;whiteSpace=wrap;html=1;" vertex="1" parent="jH00mEY5BMXt8HZJ1XQQ-17">
          <mxGeometry y="26" width="280" height="26" as="geometry" />
        </mxCell>
        <mxCell id="jH00mEY5BMXt8HZJ1XQQ-19" value="" style="line;strokeWidth=1;fillColor=none;align=left;verticalAlign=middle;spacingTop=-1;spacingLeft=3;spacingRight=3;rotatable=0;labelPosition=right;points=[];portConstraint=eastwest;strokeColor=inherit;" vertex="1" parent="jH00mEY5BMXt8HZJ1XQQ-17">
          <mxGeometry y="52" width="280" height="8" as="geometry" />
        </mxCell>
        <mxCell id="jH00mEY5BMXt8HZJ1XQQ-20" value="+ transaccion(transaccion): CuentaBancaria&lt;div&gt;+ obtenerCuenta(cuentaId: Long): CuentaBancaria&lt;/div&gt;" style="text;strokeColor=none;fillColor=none;align=left;verticalAlign=top;spacingLeft=4;spacingRight=4;overflow=hidden;rotatable=0;points=[[0,0.5],[1,0.5]];portConstraint=eastwest;whiteSpace=wrap;html=1;" vertex="1" parent="jH00mEY5BMXt8HZJ1XQQ-17">
          <mxGeometry y="60" width="280" height="50" as="geometry" />
        </mxCell>
      </root>
    </mxGraphModel>
  </diagram>
</mxfile>
